<mxfile host="app.diagrams.net" agent="Mozilla/5.0 (Windows NT 10.0; Win64; x64) AppleWebKit/537.36 (KHTML, like Gecko) Chrome/132.0.0.0 Safari/537.36" version="26.0.11">
  <diagram name="Страница — 1" id="UNnAXubD8KjF68vFrS16">
    <mxGraphModel dx="819" dy="422" grid="1" gridSize="10" guides="1" tooltips="1" connect="1" arrows="1" fold="1" page="1" pageScale="1" pageWidth="850" pageHeight="1100" math="0" shadow="0">
      <root>
        <mxCell id="0" />
        <mxCell id="1" parent="0" />
        <mxCell id="rIBL_pbJEKmbo8xznXuj-3" value="Presentation" style="text;html=1;align=center;verticalAlign=middle;whiteSpace=wrap;rounded=0;strokeColor=default;" vertex="1" parent="1">
          <mxGeometry width="250" height="30" as="geometry" />
        </mxCell>
        <mxCell id="rIBL_pbJEKmbo8xznXuj-4" value="Domain" style="text;html=1;align=center;verticalAlign=middle;whiteSpace=wrap;rounded=0;strokeColor=default;" vertex="1" parent="1">
          <mxGeometry x="250" width="350" height="30" as="geometry" />
        </mxCell>
        <mxCell id="rIBL_pbJEKmbo8xznXuj-5" value="Data" style="text;html=1;align=center;verticalAlign=middle;whiteSpace=wrap;rounded=0;strokeColor=default;" vertex="1" parent="1">
          <mxGeometry x="600" width="250" height="30" as="geometry" />
        </mxCell>
        <mxCell id="rIBL_pbJEKmbo8xznXuj-7" value="MainActibity" style="text;html=1;align=center;verticalAlign=middle;whiteSpace=wrap;rounded=0;strokeColor=default;fillColor=default;" vertex="1" parent="1">
          <mxGeometry y="90" width="150" height="30" as="geometry" />
        </mxCell>
        <mxCell id="rIBL_pbJEKmbo8xznXuj-8" value="CurrencyRateFragment" style="text;html=1;align=center;verticalAlign=middle;whiteSpace=wrap;rounded=0;strokeColor=default;fillColor=default;" vertex="1" parent="1">
          <mxGeometry y="120" width="150" height="30" as="geometry" />
        </mxCell>
        <mxCell id="rIBL_pbJEKmbo8xznXuj-9" value="SettingsFragment" style="text;html=1;align=center;verticalAlign=middle;whiteSpace=wrap;rounded=0;strokeColor=default;fillColor=default;" vertex="1" parent="1">
          <mxGeometry y="150" width="150" height="30" as="geometry" />
        </mxCell>
        <mxCell id="rIBL_pbJEKmbo8xznXuj-10" value="UI" style="text;html=1;align=center;verticalAlign=middle;whiteSpace=wrap;rounded=0;" vertex="1" parent="1">
          <mxGeometry y="60" width="150" height="30" as="geometry" />
        </mxCell>
        <mxCell id="rIBL_pbJEKmbo8xznXuj-11" value="ViewModel" style="text;html=1;align=center;verticalAlign=middle;whiteSpace=wrap;rounded=0;" vertex="1" parent="1">
          <mxGeometry x="170" y="60" width="150" height="30" as="geometry" />
        </mxCell>
        <mxCell id="rIBL_pbJEKmbo8xznXuj-12" value="CurrencyViewModel" style="text;html=1;align=center;verticalAlign=middle;whiteSpace=wrap;rounded=0;strokeColor=default;fillColor=default;" vertex="1" parent="1">
          <mxGeometry x="170" y="120" width="150" height="30" as="geometry" />
        </mxCell>
        <mxCell id="rIBL_pbJEKmbo8xznXuj-13" value="UseCase" style="text;html=1;align=center;verticalAlign=middle;whiteSpace=wrap;rounded=0;" vertex="1" parent="1">
          <mxGeometry x="350" y="60" width="150" height="30" as="geometry" />
        </mxCell>
        <mxCell id="rIBL_pbJEKmbo8xznXuj-14" value="CurrencyUseCase" style="text;html=1;align=center;verticalAlign=middle;whiteSpace=wrap;rounded=0;strokeColor=default;fillColor=default;" vertex="1" parent="1">
          <mxGeometry x="350" y="90" width="150" height="30" as="geometry" />
        </mxCell>
        <mxCell id="rIBL_pbJEKmbo8xznXuj-15" value="Entity" style="text;html=1;align=center;verticalAlign=middle;whiteSpace=wrap;rounded=0;" vertex="1" parent="1">
          <mxGeometry x="350" y="180" width="150" height="30" as="geometry" />
        </mxCell>
        <mxCell id="rIBL_pbJEKmbo8xznXuj-16" value="CurrencyEntity" style="text;html=1;align=center;verticalAlign=middle;whiteSpace=wrap;rounded=0;strokeColor=default;fillColor=default;" vertex="1" parent="1">
          <mxGeometry x="350" y="150" width="150" height="30" as="geometry" />
        </mxCell>
        <mxCell id="rIBL_pbJEKmbo8xznXuj-17" value="Repository" style="text;html=1;align=center;verticalAlign=middle;whiteSpace=wrap;rounded=0;" vertex="1" parent="1">
          <mxGeometry x="530" y="90" width="150" height="30" as="geometry" />
        </mxCell>
        <mxCell id="rIBL_pbJEKmbo8xznXuj-18" value="CurrencyRepository" style="text;html=1;align=center;verticalAlign=middle;whiteSpace=wrap;rounded=0;strokeColor=default;fillColor=default;" vertex="1" parent="1">
          <mxGeometry x="530" y="120" width="150" height="30" as="geometry" />
        </mxCell>
        <mxCell id="rIBL_pbJEKmbo8xznXuj-19" value="DataSource" style="text;html=1;align=center;verticalAlign=middle;whiteSpace=wrap;rounded=0;" vertex="1" parent="1">
          <mxGeometry x="700" y="60" width="150" height="30" as="geometry" />
        </mxCell>
        <mxCell id="rIBL_pbJEKmbo8xznXuj-20" value="NetworkDataSource" style="text;html=1;align=center;verticalAlign=middle;whiteSpace=wrap;rounded=0;strokeColor=default;fillColor=default;" vertex="1" parent="1">
          <mxGeometry x="700" y="90" width="150" height="30" as="geometry" />
        </mxCell>
        <mxCell id="rIBL_pbJEKmbo8xznXuj-21" value="DatabaseDataSource" style="text;html=1;align=center;verticalAlign=middle;whiteSpace=wrap;rounded=0;strokeColor=default;fillColor=default;" vertex="1" parent="1">
          <mxGeometry x="700" y="150" width="150" height="30" as="geometry" />
        </mxCell>
        <mxCell id="rIBL_pbJEKmbo8xznXuj-22" value="" style="endArrow=classic;html=1;rounded=0;entryX=0;entryY=0.5;entryDx=0;entryDy=0;exitX=1;exitY=0.5;exitDx=0;exitDy=0;" edge="1" parent="1" source="rIBL_pbJEKmbo8xznXuj-8" target="rIBL_pbJEKmbo8xznXuj-12">
          <mxGeometry width="50" height="50" relative="1" as="geometry">
            <mxPoint x="150" y="130" as="sourcePoint" />
            <mxPoint x="200" y="80" as="targetPoint" />
          </mxGeometry>
        </mxCell>
        <mxCell id="rIBL_pbJEKmbo8xznXuj-24" value="" style="endArrow=classic;html=1;rounded=0;exitX=1;exitY=0.5;exitDx=0;exitDy=0;entryX=0;entryY=0.5;entryDx=0;entryDy=0;" edge="1" parent="1" source="rIBL_pbJEKmbo8xznXuj-12" target="rIBL_pbJEKmbo8xznXuj-14">
          <mxGeometry width="50" height="50" relative="1" as="geometry">
            <mxPoint x="320" y="130" as="sourcePoint" />
            <mxPoint x="370" y="80" as="targetPoint" />
          </mxGeometry>
        </mxCell>
        <mxCell id="rIBL_pbJEKmbo8xznXuj-26" value="" style="endArrow=classic;html=1;rounded=0;exitX=0;exitY=0.75;exitDx=0;exitDy=0;entryX=1;entryY=0.5;entryDx=0;entryDy=0;dashed=1;dashPattern=1 2;" edge="1" parent="1" source="rIBL_pbJEKmbo8xznXuj-18" target="rIBL_pbJEKmbo8xznXuj-16">
          <mxGeometry width="50" height="50" relative="1" as="geometry">
            <mxPoint x="490" y="210" as="sourcePoint" />
            <mxPoint x="540" y="160" as="targetPoint" />
          </mxGeometry>
        </mxCell>
        <mxCell id="rIBL_pbJEKmbo8xznXuj-27" value="" style="endArrow=classic;html=1;rounded=0;exitX=1;exitY=0.5;exitDx=0;exitDy=0;entryX=0;entryY=0.25;entryDx=0;entryDy=0;" edge="1" parent="1" source="rIBL_pbJEKmbo8xznXuj-14" target="rIBL_pbJEKmbo8xznXuj-18">
          <mxGeometry width="50" height="50" relative="1" as="geometry">
            <mxPoint x="490" y="210" as="sourcePoint" />
            <mxPoint x="540" y="160" as="targetPoint" />
          </mxGeometry>
        </mxCell>
        <mxCell id="rIBL_pbJEKmbo8xznXuj-31" value="" style="endArrow=classic;html=1;rounded=0;exitX=0;exitY=0.5;exitDx=0;exitDy=0;entryX=1;entryY=0.75;entryDx=0;entryDy=0;dashed=1;" edge="1" parent="1" source="rIBL_pbJEKmbo8xznXuj-21" target="rIBL_pbJEKmbo8xznXuj-18">
          <mxGeometry width="50" height="50" relative="1" as="geometry">
            <mxPoint x="490" y="210" as="sourcePoint" />
            <mxPoint x="540" y="160" as="targetPoint" />
          </mxGeometry>
        </mxCell>
        <mxCell id="rIBL_pbJEKmbo8xznXuj-32" value="" style="endArrow=classic;html=1;rounded=0;exitX=0;exitY=0.5;exitDx=0;exitDy=0;entryX=1;entryY=0.25;entryDx=0;entryDy=0;dashed=1;" edge="1" parent="1" source="rIBL_pbJEKmbo8xznXuj-20" target="rIBL_pbJEKmbo8xznXuj-18">
          <mxGeometry width="50" height="50" relative="1" as="geometry">
            <mxPoint x="490" y="210" as="sourcePoint" />
            <mxPoint x="540" y="160" as="targetPoint" />
          </mxGeometry>
        </mxCell>
      </root>
    </mxGraphModel>
  </diagram>
</mxfile>
